<?xml version="1.0" encoding="UTF-8"?><svg id="Layer_2" xmlns="http://www.w3.org/2000/svg" viewBox="0 0 1322.09 3731.81"><defs><style>.cls-1{fill:#ff085a;fill-rule:evenodd;}</style></defs><g id="Laag_1"><path class="cls-1" d="M1296.02,524.5c0,31.2-25.28,56.49-56.47,56.49h-192.44c-14.98,0-29.34,5.96-39.93,16.54-10.59,10.58-16.54,24.95-16.54,39.91V1964.42c0,31.94,25.89,57.83,57.83,57.83h219.05c14.47,0,28.35,5.75,38.59,15.99,10.23,10.24,15.99,24.12,15.99,38.59v841.52c0,52.12-42.32,94.43-94.43,94.43s-94.43-42.32-94.43-94.43v-338.89c0-52.12-42.32-94.43-94.43-94.43s-94.44,42.31-94.44,94.43v189.93c0,52.12-42.31,94.43-94.43,94.43s-94.43-42.31-94.43-94.43v-189.93c0-52.12-42.31-94.43-94.43-94.43s-94.43,42.31-94.43,94.43v356.86c0,52.12-42.31,94.43-94.43,94.43s-94.43-42.31-94.43-94.43v-356.86c0-52.12-42.31-94.43-94.43-94.43s-94.43,42.31-94.43,94.43v165.9c0,52.12-42.31,94.43-94.43,94.43S0,2797.46,0,2745.34v-668.53c0-30.14,24.43-54.57,54.57-54.57h219.05c31.94,0,57.83-25.89,57.83-57.83V637.44c0-14.96-5.95-29.33-16.54-39.91-10.59-10.58-24.95-16.54-39.93-16.54H82.54c-14.98,0-29.34-5.96-39.93-16.54-10.59-10.58-16.54-24.95-16.54-39.95V54.57c0-14.46,5.75-28.33,15.99-38.58C52.29,5.75,66.17,0,80.65,0H1241.44c14.47,0,28.35,5.75,38.59,16,10.24,10.25,15.99,24.12,15.99,38.58v469.92ZM94.43,2949.71c-52.12,0-94.43,42.32-94.43,94.43v97.95c0,52.12,42.31,94.43,94.43,94.43s94.43-42.31,94.43-94.43v-97.95c0-52.12-42.31-94.43-94.43-94.43Zm472.17,286.82c0-52.12-42.31-94.43-94.43-94.43s-94.43,42.32-94.43,94.43,42.32,94.44,94.43,94.44,94.43-42.32,94.43-94.44Zm283.3-262.78c-52.12,0-94.43,42.31-94.43,94.43v199.25c0,52.12,42.32,94.43,94.43,94.43s94.43-42.32,94.43-94.43v-199.25c0-52.12-42.31-94.43-94.43-94.43Zm377.74,148.96c-52.12,0-94.43,42.31-94.43,94.43v301.79c0,52.12,42.31,94.43,94.43,94.43s94.43-42.31,94.43-94.43v-301.79c0-52.12-42.32-94.43-94.43-94.43ZM94.43,3349.47c-52.12,0-94.43,42.31-94.43,94.43v97.95c0,52.12,42.31,94.43,94.43,94.43s94.43-42.32,94.43-94.43v-97.95c0-52.12-42.31-94.43-94.43-94.43Zm377.74,95.53c-52.12,0-94.43,42.32-94.43,94.43v97.95c0,52.12,42.32,94.43,94.43,94.43s94.43-42.31,94.43-94.43v-97.95c0-52.12-42.31-94.43-94.43-94.43Z"/></g></svg>